name rise34.3697peak60.0498fall86.3158.mot
datacolumns 19
datarows 15
range 16.09827600000000 16.12160800000000
endheader
time	ground_force1_vx	ground_force1_vy	ground_force1_vz	ground_force1_px	ground_force1_py	ground_force1_pz	ground_force2_vx	ground_force2_vy	ground_force2_vz	ground_force2_px	ground_force2_py	ground_force2_pz	ground_torque1_x	ground_torque1_y	ground_torque1_z	ground_torque2_x	ground_torque2_y	ground_torque2_z	
16.09827600000000	-7.69440800000000	711.02326800000003	51.99222200000000	0.25467700000000	0.00000000000000	0.13104300000000	0.00000000000000	0.00000000000000	0.00000000000000	0.00000000000000	0.00000000000000	0.00000000000000	0.00000000000000	28.09008400000000	0.00000000000000	0.00000000000000	0.00000000000000	0.00000000000000	
16.09993700000000	-8.02889000000000	711.31886599999996	51.81910700000000	0.25348700000000	0.00000000000000	0.13086700000000	0.00000000000000	0.00000000000000	0.00000000000000	0.00000000000000	0.00000000000000	0.00000000000000	0.00000000000000	28.01460200000000	0.00000000000000	0.00000000000000	0.00000000000000	0.00000000000000	
16.10160400000000	-8.36411100000000	711.65349400000002	51.64351500000000	0.25232600000000	0.00000000000000	0.13068500000000	0.00000000000000	0.00000000000000	0.00000000000000	0.00000000000000	0.00000000000000	0.00000000000000	0.00000000000000	27.94082100000000	0.00000000000000	0.00000000000000	0.00000000000000	0.00000000000000	
16.10327400000000	-8.70002200000000	712.02661000000001	51.46554700000000	0.25119200000000	0.00000000000000	0.13049800000000	0.00000000000000	0.00000000000000	0.00000000000000	0.00000000000000	0.00000000000000	0.00000000000000	0.00000000000000	27.86879400000000	0.00000000000000	0.00000000000000	0.00000000000000	0.00000000000000	
16.10493600000000	-9.03657300000000	712.43765800000006	51.28532200000000	0.25008900000000	0.00000000000000	0.13030500000000	0.00000000000000	0.00000000000000	0.00000000000000	0.00000000000000	0.00000000000000	0.00000000000000	0.00000000000000	27.79857500000000	0.00000000000000	0.00000000000000	0.00000000000000	0.00000000000000	
16.10660600000000	-9.37371300000000	712.88607000000002	51.10297900000000	0.24901600000000	0.00000000000000	0.13010800000000	0.00000000000000	0.00000000000000	0.00000000000000	0.00000000000000	0.00000000000000	0.00000000000000	0.00000000000000	27.73021800000000	0.00000000000000	0.00000000000000	0.00000000000000	0.00000000000000	
16.10827700000000	-9.71139400000000	713.37126400000000	50.91867600000000	0.24797300000000	0.00000000000000	0.12990500000000	0.00000000000000	0.00000000000000	0.00000000000000	0.00000000000000	0.00000000000000	0.00000000000000	0.00000000000000	27.66377800000000	0.00000000000000	0.00000000000000	0.00000000000000	0.00000000000000	
16.10993600000000	-10.04956900000000	713.89265200000000	50.73259200000000	0.24696200000000	0.00000000000000	0.12969800000000	0.00000000000000	0.00000000000000	0.00000000000000	0.00000000000000	0.00000000000000	0.00000000000000	0.00000000000000	27.59931300000000	0.00000000000000	0.00000000000000	0.00000000000000	0.00000000000000	
16.11160100000000	-10.38819200000000	714.44964000000004	50.54492100000000	0.24598200000000	0.00000000000000	0.12948600000000	0.00000000000000	0.00000000000000	0.00000000000000	0.00000000000000	0.00000000000000	0.00000000000000	0.00000000000000	27.53687700000000	0.00000000000000	0.00000000000000	0.00000000000000	0.00000000000000	
16.11327000000000	-10.72721900000000	715.04162699999995	50.35587800000000	0.24503500000000	0.00000000000000	0.12926900000000	0.00000000000000	0.00000000000000	0.00000000000000	0.00000000000000	0.00000000000000	0.00000000000000	0.00000000000000	27.47652900000000	0.00000000000000	0.00000000000000	0.00000000000000	0.00000000000000	
16.11494200000000	-11.06660900000000	715.66801099999998	50.16569500000000	0.24411900000000	0.00000000000000	0.12904900000000	0.00000000000000	0.00000000000000	0.00000000000000	0.00000000000000	0.00000000000000	0.00000000000000	0.00000000000000	27.41832400000000	0.00000000000000	0.00000000000000	0.00000000000000	0.00000000000000	
16.11661000000000	-11.40632400000000	716.32818899999995	49.97461900000000	0.24323500000000	0.00000000000000	0.12882400000000	0.00000000000000	0.00000000000000	0.00000000000000	0.00000000000000	0.00000000000000	0.00000000000000	0.00000000000000	27.36232000000000	0.00000000000000	0.00000000000000	0.00000000000000	0.00000000000000	
16.11827200000000	-11.74632700000000	717.02155700000003	49.78291500000000	0.24238200000000	0.00000000000000	0.12859500000000	0.00000000000000	0.00000000000000	0.00000000000000	0.00000000000000	0.00000000000000	0.00000000000000	0.00000000000000	27.30857300000000	0.00000000000000	0.00000000000000	0.00000000000000	0.00000000000000	
16.11993800000000	-12.08658700000000	717.74751800000001	49.59086300000000	0.24156100000000	0.00000000000000	0.12836200000000	0.00000000000000	0.00000000000000	0.00000000000000	0.00000000000000	0.00000000000000	0.00000000000000	0.00000000000000	27.25714100000000	0.00000000000000	0.00000000000000	0.00000000000000	0.00000000000000	
16.12160800000000	-12.42707400000000	718.50547400000005	49.39875800000000	0.24077100000000	0.00000000000000	0.12812700000000	0.00000000000000	0.00000000000000	0.00000000000000	0.00000000000000	0.00000000000000	0.00000000000000	0.00000000000000	27.20807900000000	0.00000000000000	0.00000000000000	0.00000000000000	0.00000000000000	
